<svg viewBox="0 0 80 80" xmlns="http://www.w3.org/2000/svg" role="img" aria-label="Dashboard with KPI cards and bar chart">
  <rect x="6" y="8" width="68" height="64" rx="5" fill="#fff" stroke="#f59e0b" stroke-width="2"/>
  <rect x="11" y="13" width="26" height="16" rx="2.5" fill="#f59e0b" fill-opacity="0.14"/>
  <rect x="43" y="13" width="26" height="16" rx="2.5" fill="#f59e0b" fill-opacity="0.22"/>
  <rect x="15" y="19" width="14" height="3.5" fill="#b45309" rx="0.6"/>
  <rect x="15" y="24" width="7" height="2" fill="#b45309" fill-opacity="0.5" rx="0.5"/>
  <rect x="47" y="19" width="16" height="3.5" fill="#b45309" rx="0.6"/>
  <rect x="47" y="24" width="8" height="2" fill="#b45309" fill-opacity="0.5" rx="0.5"/>
  <rect x="11" y="34" width="58" height="34" rx="2.5" fill="#fff" stroke="#f59e0b" stroke-width="0.9" stroke-opacity="0.4"/>
  <rect x="16" y="51" width="6" height="13" fill="#f59e0b" rx="1"/>
  <rect x="25" y="45" width="6" height="19" fill="#f59e0b" rx="1"/>
  <rect x="34" y="47" width="6" height="17" fill="#f59e0b" rx="1"/>
  <rect x="43" y="41" width="6" height="23" fill="#f59e0b" rx="1"/>
  <rect x="52" y="37" width="6" height="27" fill="#f59e0b" rx="1"/>
  <rect x="61" y="43" width="6" height="21" fill="#f59e0b" rx="1"/>
</svg>
